<mxfile host="app.diagrams.net" modified="2024-07-09T10:16:24.061Z" agent="Mozilla/5.0 (Windows NT 10.0; Win64; x64) AppleWebKit/537.36 (KHTML, like Gecko) Chrome/126.0.0.0 Safari/537.36" etag="fr038XLog5uaDRNY7el5" version="24.6.4" type="device">
  <diagram name="Page-1" id="oWhInyPDCUsZevUdAwa5">
    <mxGraphModel dx="1120" dy="434" grid="1" gridSize="10" guides="1" tooltips="1" connect="1" arrows="1" fold="1" page="1" pageScale="1" pageWidth="850" pageHeight="1100" math="0" shadow="0">
      <root>
        <mxCell id="0" />
        <mxCell id="1" parent="0" />
        <mxCell id="NeFbs41uv6jP6bOcNQjW-5" style="edgeStyle=orthogonalEdgeStyle;rounded=0;orthogonalLoop=1;jettySize=auto;html=1;exitX=0.5;exitY=1;exitDx=0;exitDy=0;" edge="1" parent="1" source="NeFbs41uv6jP6bOcNQjW-1" target="NeFbs41uv6jP6bOcNQjW-2">
          <mxGeometry relative="1" as="geometry" />
        </mxCell>
        <mxCell id="NeFbs41uv6jP6bOcNQjW-1" value="Start" style="ellipse;whiteSpace=wrap;html=1;" vertex="1" parent="1">
          <mxGeometry x="200" y="40" width="120" height="80" as="geometry" />
        </mxCell>
        <mxCell id="NeFbs41uv6jP6bOcNQjW-6" style="edgeStyle=orthogonalEdgeStyle;rounded=0;orthogonalLoop=1;jettySize=auto;html=1;exitX=0;exitY=0.5;exitDx=0;exitDy=0;" edge="1" parent="1" source="NeFbs41uv6jP6bOcNQjW-2" target="NeFbs41uv6jP6bOcNQjW-4">
          <mxGeometry relative="1" as="geometry" />
        </mxCell>
        <mxCell id="NeFbs41uv6jP6bOcNQjW-8" value="No" style="edgeLabel;html=1;align=center;verticalAlign=middle;resizable=0;points=[];" vertex="1" connectable="0" parent="NeFbs41uv6jP6bOcNQjW-6">
          <mxGeometry x="-0.8881" y="1" relative="1" as="geometry">
            <mxPoint as="offset" />
          </mxGeometry>
        </mxCell>
        <mxCell id="NeFbs41uv6jP6bOcNQjW-10" style="edgeStyle=orthogonalEdgeStyle;rounded=0;orthogonalLoop=1;jettySize=auto;html=1;exitX=1;exitY=0.5;exitDx=0;exitDy=0;entryX=0.5;entryY=0;entryDx=0;entryDy=0;" edge="1" parent="1" source="NeFbs41uv6jP6bOcNQjW-2" target="NeFbs41uv6jP6bOcNQjW-9">
          <mxGeometry relative="1" as="geometry" />
        </mxCell>
        <mxCell id="NeFbs41uv6jP6bOcNQjW-17" value="Yes" style="edgeLabel;html=1;align=center;verticalAlign=middle;resizable=0;points=[];" vertex="1" connectable="0" parent="NeFbs41uv6jP6bOcNQjW-10">
          <mxGeometry x="-0.6308" y="-2" relative="1" as="geometry">
            <mxPoint as="offset" />
          </mxGeometry>
        </mxCell>
        <mxCell id="NeFbs41uv6jP6bOcNQjW-2" value="Is&amp;nbsp;&lt;div&gt;Sunday?&lt;/div&gt;" style="rhombus;whiteSpace=wrap;html=1;" vertex="1" parent="1">
          <mxGeometry x="220" y="170" width="80" height="80" as="geometry" />
        </mxCell>
        <mxCell id="NeFbs41uv6jP6bOcNQjW-3" value="End" style="ellipse;whiteSpace=wrap;html=1;" vertex="1" parent="1">
          <mxGeometry x="220" y="870" width="120" height="80" as="geometry" />
        </mxCell>
        <mxCell id="NeFbs41uv6jP6bOcNQjW-7" style="edgeStyle=orthogonalEdgeStyle;rounded=0;orthogonalLoop=1;jettySize=auto;html=1;exitX=0.5;exitY=1;exitDx=0;exitDy=0;entryX=0;entryY=0.5;entryDx=0;entryDy=0;" edge="1" parent="1" source="NeFbs41uv6jP6bOcNQjW-4" target="NeFbs41uv6jP6bOcNQjW-3">
          <mxGeometry relative="1" as="geometry" />
        </mxCell>
        <mxCell id="NeFbs41uv6jP6bOcNQjW-4" value="Go to Shop" style="rounded=1;whiteSpace=wrap;html=1;" vertex="1" parent="1">
          <mxGeometry y="750" width="120" height="60" as="geometry" />
        </mxCell>
        <mxCell id="NeFbs41uv6jP6bOcNQjW-12" style="edgeStyle=orthogonalEdgeStyle;rounded=0;orthogonalLoop=1;jettySize=auto;html=1;exitX=1;exitY=0.5;exitDx=0;exitDy=0;entryX=0.5;entryY=0;entryDx=0;entryDy=0;" edge="1" parent="1" source="NeFbs41uv6jP6bOcNQjW-9" target="NeFbs41uv6jP6bOcNQjW-11">
          <mxGeometry relative="1" as="geometry" />
        </mxCell>
        <mxCell id="NeFbs41uv6jP6bOcNQjW-16" value="Yes" style="edgeLabel;html=1;align=center;verticalAlign=middle;resizable=0;points=[];" vertex="1" connectable="0" parent="NeFbs41uv6jP6bOcNQjW-12">
          <mxGeometry x="-0.8324" y="-1" relative="1" as="geometry">
            <mxPoint as="offset" />
          </mxGeometry>
        </mxCell>
        <mxCell id="NeFbs41uv6jP6bOcNQjW-15" style="edgeStyle=orthogonalEdgeStyle;rounded=0;orthogonalLoop=1;jettySize=auto;html=1;exitX=0;exitY=0.5;exitDx=0;exitDy=0;entryX=0.5;entryY=0;entryDx=0;entryDy=0;" edge="1" parent="1" source="NeFbs41uv6jP6bOcNQjW-9" target="NeFbs41uv6jP6bOcNQjW-19">
          <mxGeometry relative="1" as="geometry" />
        </mxCell>
        <mxCell id="NeFbs41uv6jP6bOcNQjW-18" value="No" style="edgeLabel;html=1;align=center;verticalAlign=middle;resizable=0;points=[];" vertex="1" connectable="0" parent="NeFbs41uv6jP6bOcNQjW-15">
          <mxGeometry x="-0.3333" relative="1" as="geometry">
            <mxPoint as="offset" />
          </mxGeometry>
        </mxCell>
        <mxCell id="NeFbs41uv6jP6bOcNQjW-9" value="Ask&amp;nbsp;&lt;div&gt;Bapuji ?&lt;/div&gt;" style="rhombus;whiteSpace=wrap;html=1;" vertex="1" parent="1">
          <mxGeometry x="340" y="260" width="80" height="80" as="geometry" />
        </mxCell>
        <mxCell id="NeFbs41uv6jP6bOcNQjW-11" value="Tell Daya and Enjoy with family" style="rounded=1;whiteSpace=wrap;html=1;" vertex="1" parent="1">
          <mxGeometry x="680" y="350" width="120" height="60" as="geometry" />
        </mxCell>
        <mxCell id="NeFbs41uv6jP6bOcNQjW-13" style="edgeStyle=orthogonalEdgeStyle;rounded=0;orthogonalLoop=1;jettySize=auto;html=1;exitX=0.5;exitY=1;exitDx=0;exitDy=0;entryX=1;entryY=0.625;entryDx=0;entryDy=0;entryPerimeter=0;" edge="1" parent="1" source="NeFbs41uv6jP6bOcNQjW-11" target="NeFbs41uv6jP6bOcNQjW-3">
          <mxGeometry relative="1" as="geometry" />
        </mxCell>
        <mxCell id="NeFbs41uv6jP6bOcNQjW-22" style="edgeStyle=orthogonalEdgeStyle;rounded=0;orthogonalLoop=1;jettySize=auto;html=1;exitX=0;exitY=0.5;exitDx=0;exitDy=0;" edge="1" parent="1" source="NeFbs41uv6jP6bOcNQjW-14" target="NeFbs41uv6jP6bOcNQjW-21">
          <mxGeometry relative="1" as="geometry" />
        </mxCell>
        <mxCell id="NeFbs41uv6jP6bOcNQjW-23" value="No" style="edgeLabel;html=1;align=center;verticalAlign=middle;resizable=0;points=[];" vertex="1" connectable="0" parent="NeFbs41uv6jP6bOcNQjW-22">
          <mxGeometry x="-0.9037" relative="1" as="geometry">
            <mxPoint as="offset" />
          </mxGeometry>
        </mxCell>
        <mxCell id="NeFbs41uv6jP6bOcNQjW-25" style="edgeStyle=orthogonalEdgeStyle;rounded=0;orthogonalLoop=1;jettySize=auto;html=1;exitX=1;exitY=0.5;exitDx=0;exitDy=0;" edge="1" parent="1" source="NeFbs41uv6jP6bOcNQjW-14" target="NeFbs41uv6jP6bOcNQjW-24">
          <mxGeometry relative="1" as="geometry" />
        </mxCell>
        <mxCell id="NeFbs41uv6jP6bOcNQjW-14" value="Ask&amp;nbsp;&lt;div&gt;Tarak ?&lt;/div&gt;" style="rhombus;whiteSpace=wrap;html=1;" vertex="1" parent="1">
          <mxGeometry x="220" y="470" width="80" height="80" as="geometry" />
        </mxCell>
        <mxCell id="NeFbs41uv6jP6bOcNQjW-20" style="edgeStyle=orthogonalEdgeStyle;rounded=0;orthogonalLoop=1;jettySize=auto;html=1;exitX=0.5;exitY=1;exitDx=0;exitDy=0;entryX=0.5;entryY=0;entryDx=0;entryDy=0;" edge="1" parent="1" source="NeFbs41uv6jP6bOcNQjW-19" target="NeFbs41uv6jP6bOcNQjW-14">
          <mxGeometry relative="1" as="geometry" />
        </mxCell>
        <mxCell id="NeFbs41uv6jP6bOcNQjW-19" value="Go on Walk" style="rounded=1;whiteSpace=wrap;html=1;" vertex="1" parent="1">
          <mxGeometry x="200" y="360" width="120" height="60" as="geometry" />
        </mxCell>
        <mxCell id="NeFbs41uv6jP6bOcNQjW-30" style="edgeStyle=orthogonalEdgeStyle;rounded=0;orthogonalLoop=1;jettySize=auto;html=1;" edge="1" parent="1" source="NeFbs41uv6jP6bOcNQjW-21" target="NeFbs41uv6jP6bOcNQjW-3">
          <mxGeometry relative="1" as="geometry" />
        </mxCell>
        <mxCell id="NeFbs41uv6jP6bOcNQjW-21" value="Enjoy Fafda Jalebi alone" style="rounded=1;whiteSpace=wrap;html=1;" vertex="1" parent="1">
          <mxGeometry x="130" y="750" width="120" height="60" as="geometry" />
        </mxCell>
        <mxCell id="NeFbs41uv6jP6bOcNQjW-26" style="edgeStyle=orthogonalEdgeStyle;rounded=0;orthogonalLoop=1;jettySize=auto;html=1;exitX=0;exitY=0.5;exitDx=0;exitDy=0;entryX=0.75;entryY=0;entryDx=0;entryDy=0;" edge="1" parent="1" source="NeFbs41uv6jP6bOcNQjW-24" target="NeFbs41uv6jP6bOcNQjW-21">
          <mxGeometry relative="1" as="geometry" />
        </mxCell>
        <mxCell id="NeFbs41uv6jP6bOcNQjW-27" value="No" style="edgeLabel;html=1;align=center;verticalAlign=middle;resizable=0;points=[];" vertex="1" connectable="0" parent="NeFbs41uv6jP6bOcNQjW-26">
          <mxGeometry x="-0.7917" y="1" relative="1" as="geometry">
            <mxPoint as="offset" />
          </mxGeometry>
        </mxCell>
        <mxCell id="NeFbs41uv6jP6bOcNQjW-29" style="edgeStyle=orthogonalEdgeStyle;rounded=0;orthogonalLoop=1;jettySize=auto;html=1;exitX=1;exitY=0.5;exitDx=0;exitDy=0;" edge="1" parent="1" source="NeFbs41uv6jP6bOcNQjW-24" target="NeFbs41uv6jP6bOcNQjW-28">
          <mxGeometry relative="1" as="geometry" />
        </mxCell>
        <mxCell id="NeFbs41uv6jP6bOcNQjW-24" value="Ask&amp;nbsp;&lt;div&gt;Anjali ?&amp;nbsp;&lt;/div&gt;" style="rhombus;whiteSpace=wrap;html=1;" vertex="1" parent="1">
          <mxGeometry x="310" y="560" width="80" height="80" as="geometry" />
        </mxCell>
        <mxCell id="NeFbs41uv6jP6bOcNQjW-31" style="edgeStyle=orthogonalEdgeStyle;rounded=0;orthogonalLoop=1;jettySize=auto;html=1;exitX=0.5;exitY=1;exitDx=0;exitDy=0;" edge="1" parent="1" source="NeFbs41uv6jP6bOcNQjW-28">
          <mxGeometry relative="1" as="geometry">
            <mxPoint x="280" y="870" as="targetPoint" />
          </mxGeometry>
        </mxCell>
        <mxCell id="NeFbs41uv6jP6bOcNQjW-28" value="Both Enjoy Fafda jalebi" style="rounded=1;whiteSpace=wrap;html=1;" vertex="1" parent="1">
          <mxGeometry x="430" y="750" width="120" height="60" as="geometry" />
        </mxCell>
      </root>
    </mxGraphModel>
  </diagram>
</mxfile>
